<svg id="visual" viewBox="0 0 900 300" width="900" height="300" xmlns="http://www.w3.org/2000/svg" xmlns:xlink="http://www.w3.org/1999/xlink" version="1.1"><path d="M0 90L13.7 94.5C27.3 99 54.7 108 82 108.2C109.3 108.3 136.7 99.7 163.8 94.7C191 89.7 218 88.3 245.2 85.2C272.3 82 299.7 77 327 78.3C354.3 79.7 381.7 87.3 409 94.2C436.3 101 463.7 107 491 103.5C518.3 100 545.7 87 573 88C600.3 89 627.7 104 654.8 110.2C682 116.3 709 113.7 736.2 108.3C763.3 103 790.7 95 818 96.2C845.3 97.3 872.7 107.7 886.3 112.8L900 118L900 0L886.3 0C872.7 0 845.3 0 818 0C790.7 0 763.3 0 736.2 0C709 0 682 0 654.8 0C627.7 0 600.3 0 573 0C545.7 0 518.3 0 491 0C463.7 0 436.3 0 409 0C381.7 0 354.3 0 327 0C299.7 0 272.3 0 245.2 0C218 0 191 0 163.8 0C136.7 0 109.3 0 82 0C54.7 0 27.3 0 13.7 0L0 0Z" fill="#bbd2c5"></path><path d="M0 94L13.7 93.2C27.3 92.3 54.7 90.7 82 86C109.3 81.3 136.7 73.7 163.8 71C191 68.3 218 70.7 245.2 73.3C272.3 76 299.7 79 327 78.5C354.3 78 381.7 74 409 69.7C436.3 65.3 463.7 60.7 491 63.5C518.3 66.3 545.7 76.7 573 83.3C600.3 90 627.7 93 654.8 87.7C682 82.3 709 68.7 736.2 68.5C763.3 68.3 790.7 81.7 818 85.5C845.3 89.3 872.7 83.7 886.3 80.8L900 78L900 0L886.3 0C872.7 0 845.3 0 818 0C790.7 0 763.3 0 736.2 0C709 0 682 0 654.8 0C627.7 0 600.3 0 573 0C545.7 0 518.3 0 491 0C463.7 0 436.3 0 409 0C381.7 0 354.3 0 327 0C299.7 0 272.3 0 245.2 0C218 0 191 0 163.8 0C136.7 0 109.3 0 82 0C54.7 0 27.3 0 13.7 0L0 0Z" fill="#759b9d"></path><path d="M0 42L13.7 40.7C27.3 39.3 54.7 36.7 82 39.7C109.3 42.7 136.7 51.3 163.8 52.2C191 53 218 46 245.2 41.7C272.3 37.3 299.7 35.7 327 35.2C354.3 34.7 381.7 35.3 409 40.3C436.3 45.3 463.7 54.7 491 55.8C518.3 57 545.7 50 573 49.3C600.3 48.7 627.7 54.3 654.8 56.5C682 58.7 709 57.3 736.2 55C763.3 52.7 790.7 49.3 818 49.3C845.3 49.3 872.7 52.7 886.3 54.3L900 56L900 0L886.3 0C872.7 0 845.3 0 818 0C790.7 0 763.3 0 736.2 0C709 0 682 0 654.8 0C627.7 0 600.3 0 573 0C545.7 0 518.3 0 491 0C463.7 0 436.3 0 409 0C381.7 0 354.3 0 327 0C299.7 0 272.3 0 245.2 0C218 0 191 0 163.8 0C136.7 0 109.3 0 82 0C54.7 0 27.3 0 13.7 0L0 0Z" fill="#436477"></path><path d="M0 37L13.7 33.3C27.3 29.7 54.7 22.3 82 22.2C109.3 22 136.7 29 163.8 30.5C191 32 218 28 245.2 24.8C272.3 21.7 299.7 19.3 327 17.8C354.3 16.3 381.7 15.7 409 19.8C436.3 24 463.7 33 491 34.7C518.3 36.3 545.7 30.7 573 30C600.3 29.3 627.7 33.7 654.8 32.5C682 31.3 709 24.7 736.2 22.2C763.3 19.7 790.7 21.3 818 25.2C845.3 29 872.7 35 886.3 38L900 41L900 0L886.3 0C872.7 0 845.3 0 818 0C790.7 0 763.3 0 736.2 0C709 0 682 0 654.8 0C627.7 0 600.3 0 573 0C545.7 0 518.3 0 491 0C463.7 0 436.3 0 409 0C381.7 0 354.3 0 327 0C299.7 0 272.3 0 245.2 0C218 0 191 0 163.8 0C136.7 0 109.3 0 82 0C54.7 0 27.3 0 13.7 0L0 0Z" fill="#292e49"></path></svg>