<svg id="visual" viewBox="0 0 900 600" width="900" height="600" xmlns="http://www.w3.org/2000/svg" xmlns:xlink="http://www.w3.org/1999/xlink" version="1.1"><path d="M0 417L13.7 408C27.3 399 54.7 381 82 380.8C109.3 380.7 136.7 398.3 163.8 408.3C191 418.3 218 420.7 245.2 426.7C272.3 432.7 299.7 442.3 327 439.7C354.3 437 381.7 422 409 408.5C436.3 395 463.7 383 491 390.2C518.3 397.3 545.7 423.7 573 421.7C600.3 419.7 627.7 389.3 654.8 376.7C682 364 709 369 736.2 379.7C763.3 390.3 790.7 406.7 818 404.7C845.3 402.7 872.7 382.3 886.3 372.2L900 362L900 601L886.3 601C872.7 601 845.3 601 818 601C790.7 601 763.3 601 736.2 601C709 601 682 601 654.8 601C627.7 601 600.3 601 573 601C545.7 601 518.3 601 491 601C463.7 601 436.3 601 409 601C381.7 601 354.3 601 327 601C299.7 601 272.3 601 245.2 601C218 601 191 601 163.8 601C136.7 601 109.3 601 82 601C54.7 601 27.3 601 13.7 601L0 601Z" fill="#bbd2c5"></path><path d="M0 410L13.7 411.3C27.3 412.7 54.7 415.3 82 424.7C109.3 434 136.7 450 163.8 455.7C191 461.3 218 456.7 245.2 451C272.3 445.3 299.7 438.7 327 439.7C354.3 440.7 381.7 449.3 409 458.2C436.3 467 463.7 476 491 470.2C518.3 464.3 545.7 443.7 573 430.3C600.3 417 627.7 411 654.8 421.7C682 432.3 709 459.7 736.2 460.2C763.3 460.7 790.7 434.3 818 426.5C845.3 418.7 872.7 429.3 886.3 434.7L900 440L900 601L886.3 601C872.7 601 845.3 601 818 601C790.7 601 763.3 601 736.2 601C709 601 682 601 654.8 601C627.7 601 600.3 601 573 601C545.7 601 518.3 601 491 601C463.7 601 436.3 601 409 601C381.7 601 354.3 601 327 601C299.7 601 272.3 601 245.2 601C218 601 191 601 163.8 601C136.7 601 109.3 601 82 601C54.7 601 27.3 601 13.7 601L0 601Z" fill="#759b9d"></path><path d="M0 513L13.7 515.5C27.3 518 54.7 523 82 517.2C109.3 511.3 136.7 494.7 163.8 493.3C191 492 218 506 245.2 514.3C272.3 522.7 299.7 525.3 327 526.2C354.3 527 381.7 526 409 516.2C436.3 506.3 463.7 487.7 491 485.3C518.3 483 545.7 497 573 498.2C600.3 499.3 627.7 487.7 654.8 483.3C682 479 709 482 736.2 486.8C763.3 491.7 790.7 498.3 818 498.3C845.3 498.3 872.7 491.7 886.3 488.3L900 485L900 601L886.3 601C872.7 601 845.3 601 818 601C790.7 601 763.3 601 736.2 601C709 601 682 601 654.8 601C627.7 601 600.3 601 573 601C545.7 601 518.3 601 491 601C463.7 601 436.3 601 409 601C381.7 601 354.3 601 327 601C299.7 601 272.3 601 245.2 601C218 601 191 601 163.8 601C136.7 601 109.3 601 82 601C54.7 601 27.3 601 13.7 601L0 601Z" fill="#436477"></path><path d="M0 524L13.7 531.3C27.3 538.7 54.7 553.3 82 553.7C109.3 554 136.7 540 163.8 536.7C191 533.3 218 540.7 245.2 546.7C272.3 552.7 299.7 557.3 327 560.7C354.3 564 381.7 566 409 557.8C436.3 549.7 463.7 531.3 491 527.7C518.3 524 545.7 535 573 536.2C600.3 537.3 627.7 528.7 654.8 531.2C682 533.7 709 547.3 736.2 552.3C763.3 557.3 790.7 553.7 818 546C845.3 538.3 872.7 526.7 886.3 520.8L900 515L900 601L886.3 601C872.7 601 845.3 601 818 601C790.7 601 763.3 601 736.2 601C709 601 682 601 654.8 601C627.7 601 600.3 601 573 601C545.7 601 518.3 601 491 601C463.7 601 436.3 601 409 601C381.7 601 354.3 601 327 601C299.7 601 272.3 601 245.2 601C218 601 191 601 163.8 601C136.7 601 109.3 601 82 601C54.7 601 27.3 601 13.7 601L0 601Z" fill="#292e49"></path></svg>