<svg id="visual" viewBox="0 0 1920 500" width="1920" height="500" xmlns="http://www.w3.org/2000/svg" xmlns:xlink="http://www.w3.org/1999/xlink" version="1.1"><path d="M0 167L40 173.2C80 179.3 160 191.7 240 206.7C320 221.7 400 239.3 480 241.8C560 244.3 640 231.7 720 251.2C800 270.7 880 322.3 960 346.5C1040 370.7 1120 367.3 1200 338.7C1280 310 1360 256 1440 224.8C1520 193.7 1600 185.3 1680 179.3C1760 173.3 1840 169.7 1880 167.8L1920 166L1920 0L1880 0C1840 0 1760 0 1680 0C1600 0 1520 0 1440 0C1360 0 1280 0 1200 0C1120 0 1040 0 960 0C880 0 800 0 720 0C640 0 560 0 480 0C400 0 320 0 240 0C160 0 80 0 40 0L0 0Z" fill="#292e49"></path><path d="M0 93L40 117.8C80 142.7 160 192.3 240 224.5C320 256.7 400 271.3 480 275.2C560 279 640 272 720 254.8C800 237.7 880 210.3 960 194.7C1040 179 1120 175 1200 162.2C1280 149.3 1360 127.7 1440 148.5C1520 169.3 1600 232.7 1680 246.8C1760 261 1840 226 1880 208.5L1920 191L1920 0L1880 0C1840 0 1760 0 1680 0C1600 0 1520 0 1440 0C1360 0 1280 0 1200 0C1120 0 1040 0 960 0C880 0 800 0 720 0C640 0 560 0 480 0C400 0 320 0 240 0C160 0 80 0 40 0L0 0Z" fill="#394b61"></path><path d="M0 117L40 109.2C80 101.3 160 85.7 240 91.5C320 97.3 400 124.7 480 140.3C560 156 640 160 720 150.8C800 141.7 880 119.3 960 116.2C1040 113 1120 129 1200 124.2C1280 119.3 1360 93.7 1440 101.5C1520 109.3 1600 150.7 1680 150.8C1760 151 1840 110 1880 89.5L1920 69L1920 0L1880 0C1840 0 1760 0 1680 0C1600 0 1520 0 1440 0C1360 0 1280 0 1200 0C1120 0 1040 0 960 0C880 0 800 0 720 0C640 0 560 0 480 0C400 0 320 0 240 0C160 0 80 0 40 0L0 0Z" fill="#536976"></path></svg>