<svg id="visual" viewBox="0 0 900 300" width="900" height="300" xmlns="http://www.w3.org/2000/svg" xmlns:xlink="http://www.w3.org/1999/xlink" version="1.1"><path d="M0 208L13.7 203.5C27.3 199 54.7 190 82 189.8C109.3 189.7 136.7 198.3 163.8 203.3C191 208.3 218 209.7 245.2 212.8C272.3 216 299.7 221 327 219.7C354.3 218.3 381.7 210.7 409 203.8C436.3 197 463.7 191 491 194.5C518.3 198 545.7 211 573 210C600.3 209 627.7 194 654.8 187.8C682 181.7 709 184.3 736.2 189.7C763.3 195 790.7 203 818 201.8C845.3 200.7 872.7 190.3 886.3 185.2L900 180L900 301L886.3 301C872.7 301 845.3 301 818 301C790.7 301 763.3 301 736.2 301C709 301 682 301 654.8 301C627.7 301 600.3 301 573 301C545.7 301 518.3 301 491 301C463.7 301 436.3 301 409 301C381.7 301 354.3 301 327 301C299.7 301 272.3 301 245.2 301C218 301 191 301 163.8 301C136.7 301 109.3 301 82 301C54.7 301 27.3 301 13.7 301L0 301Z" fill="#bbd2c5"></path><path d="M0 204L13.7 204.8C27.3 205.7 54.7 207.3 82 212C109.3 216.7 136.7 224.3 163.8 227C191 229.7 218 227.3 245.2 224.7C272.3 222 299.7 219 327 219.5C354.3 220 381.7 224 409 228.3C436.3 232.7 463.7 237.3 491 234.5C518.3 231.7 545.7 221.3 573 214.7C600.3 208 627.7 205 654.8 210.3C682 215.7 709 229.3 736.2 229.5C763.3 229.7 790.7 216.3 818 212.5C845.3 208.7 872.7 214.3 886.3 217.2L900 220L900 301L886.3 301C872.7 301 845.3 301 818 301C790.7 301 763.3 301 736.2 301C709 301 682 301 654.8 301C627.7 301 600.3 301 573 301C545.7 301 518.3 301 491 301C463.7 301 436.3 301 409 301C381.7 301 354.3 301 327 301C299.7 301 272.3 301 245.2 301C218 301 191 301 163.8 301C136.7 301 109.3 301 82 301C54.7 301 27.3 301 13.7 301L0 301Z" fill="#759b9d"></path><path d="M0 256L13.7 257.3C27.3 258.7 54.7 261.3 82 258.3C109.3 255.3 136.7 246.7 163.8 245.8C191 245 218 252 245.2 256.3C272.3 260.7 299.7 262.3 327 262.8C354.3 263.3 381.7 262.7 409 257.7C436.3 252.7 463.7 243.3 491 242.2C518.3 241 545.7 248 573 248.7C600.3 249.3 627.7 243.7 654.8 241.5C682 239.3 709 240.7 736.2 243C763.3 245.3 790.7 248.7 818 248.7C845.3 248.7 872.7 245.3 886.3 243.7L900 242L900 301L886.3 301C872.7 301 845.3 301 818 301C790.7 301 763.3 301 736.2 301C709 301 682 301 654.8 301C627.7 301 600.3 301 573 301C545.7 301 518.3 301 491 301C463.7 301 436.3 301 409 301C381.7 301 354.3 301 327 301C299.7 301 272.3 301 245.2 301C218 301 191 301 163.8 301C136.7 301 109.3 301 82 301C54.7 301 27.3 301 13.7 301L0 301Z" fill="#436477"></path><path d="M0 261L13.7 264.7C27.3 268.3 54.7 275.7 82 275.8C109.3 276 136.7 269 163.8 267.5C191 266 218 270 245.2 273.2C272.3 276.3 299.7 278.7 327 280.2C354.3 281.7 381.7 282.3 409 278.2C436.3 274 463.7 265 491 263.3C518.3 261.7 545.7 267.3 573 268C600.3 268.7 627.7 264.3 654.8 265.5C682 266.7 709 273.3 736.2 275.8C763.3 278.3 790.7 276.7 818 272.8C845.3 269 872.7 263 886.3 260L900 257L900 301L886.3 301C872.7 301 845.3 301 818 301C790.7 301 763.3 301 736.2 301C709 301 682 301 654.8 301C627.7 301 600.3 301 573 301C545.7 301 518.3 301 491 301C463.7 301 436.3 301 409 301C381.7 301 354.3 301 327 301C299.7 301 272.3 301 245.2 301C218 301 191 301 163.8 301C136.7 301 109.3 301 82 301C54.7 301 27.3 301 13.7 301L0 301Z" fill="#292e49"></path></svg>