<?xml version="1.0" encoding="UTF-8"?>
<svg id="Layer_2" data-name="Layer 2" xmlns="http://www.w3.org/2000/svg" viewBox="0 0 4421.82 1486.93">
  <defs>
    <style>
      .cls-1 {
        fill: #fff;
      }

      .cls-2 {
        font-family: Posterama2001-Regular, 'Posterama 2001';
        font-size: 93.04px;
        isolation: isolate;
      }

      .cls-2, .cls-3 {
        fill: #231f20;
      }

      .cls-4 {
        fill: none;
        stroke: #231f20;
        stroke-miterlimit: 9.99;
        stroke-width: 49.95px;
      }

      .cls-5 {
        fill: #fdb932;
      }

      .cls-6 {
        fill: #80b241;
      }

      .cls-7 {
        fill: #6bbe45;
      }

      .cls-8 {
        fill: #985e26;
      }

      .cls-9 {
        fill: #719c3f;
      }
    </style>
  </defs>
  <g id="Layer_1-2" data-name="Layer 1">
    <g id="Layer_2-2" data-name="Layer 2">
      <g id="Layer_1-2" data-name="Layer 1-2">
        <path class="cls-3" d="M77.92,715.05H21.98c-15.98,0-21.98-4.99-21.98-21.98V38.73C0,15.75,4.99,5.76,19.98,5.76c10.99,0,18.98,7.99,37.96,28.97L336.66,369.4,611.38,34.73c20.98-22.98,26.97-28.97,37.96-28.97,14.98,0,19.98,9.99,19.98,32.97V693.07c0,16.98-5.99,21.98-21.98,21.98h-55.94c-15.98,0-21.98-4.99-21.98-21.98V227.54l-199.8,245.75c-16.98,22.98-23.98,27.97-34.96,27.97s-17.98-4.99-34.96-27.97L99.9,227.54v465.53c0,16.98-5.99,21.98-21.98,21.98Z"/>
        <path class="cls-3" d="M828.16,715.05h-51.95c-12.99,0-19.98-4-19.98-12.99,0-3,2-8.99,4.99-16.98L1061.93,51.72c19.98-40.96,25.97-49.95,38.96-49.95,11.99,0,16.98,8.99,36.96,49.95l303.69,633.36c3,7.99,4.99,13.99,4.99,16.98,0,8.99-6.99,12.99-20.98,12.99h-55.94c-20.98,0-27.97-5.99-39.96-29.97l-230.77-497.5-230.77,497.5c-10.99,23.98-18.98,29.97-39.96,29.97Z"/>
        <path class="cls-3" d="M1751.23,15.75c164.83,0,262.73,56.94,262.73,185.81,0,80.92-36.96,127.87-103.89,151.85,75.92,18.98,123.87,72.93,123.87,156.84,0,142.86-99.9,204.79-279.72,204.79h-198.8c-15.98,0-21.98-4.99-21.98-21.98V37.73c0-16.98,5.99-21.98,21.98-21.98h195.8Zm-117.88,289.71c0,7.99,3,11.99,11.99,11.99h112.89c100.9,0,151.85-34.96,151.85-105.89s-54.94-103.89-165.83-103.89h-98.9c-8.99,0-11.99,4-11.99,11.99v185.81Zm128.87,102.9h-116.88c-8.99,0-11.99,3-11.99,11.99v190.81c0,7.99,3,11.99,11.99,11.99h108.89c122.88,0,175.82-30.97,175.82-111.89,0-74.92-56.94-102.9-167.83-102.9Z"/>
        <path class="cls-3" d="M2180.79,715.05c-15.98,0-21.98-4.99-21.98-21.98V37.73c0-16.98,5.99-21.98,21.98-21.98h55.94c15.98,0,21.98,4.99,21.98,21.98V693.07c0,16.98-5.99,21.98-21.98,21.98h-55.94Z"/>
        <path class="cls-3" d="M2432.54,561.2c60.94,46.95,121.88,70.93,182.81,70.93,91.91,0,150.85-41.96,150.85-106.89s-37.96-84.91-157.84-115.88c-139.86-34.96-215.78-83.92-215.78-200.8,0-126.87,101.9-203.79,235.76-203.79,83.92,0,159.84,25.97,227.77,78.92,6.99,4.99,9.99,9.99,9.99,14.98,0,4-3,8.99-6.99,15.98l-28.97,42.96c-4.99,7.99-9.99,10.99-14.98,10.99s-9.99-2-16.98-6.99c-52.95-38.96-107.89-62.94-170.83-62.94-75.92,0-129.87,39.96-129.87,103.89s44.95,88.91,153.84,115.88c151.85,38.96,218.78,88.91,218.78,199.8,0,125.87-106.89,207.79-256.74,207.79-90.91,0-169.83-32.97-236.76-85.91-6.99-6.99-10.99-11.99-10.99-16.98s2-9.99,6.99-16.98l29.97-41.96c4.99-6.99,9.99-10.99,14.98-10.99,3,0,7.99,3,14.98,7.99Z"/>
        <path class="cls-8" d="M132.1,1214.16L6.12,892.28c-.91-2.46-1.44-5.04-1.55-7.66,0-5.62,3.09-7.66,11.32-7.66h28.27c10.8,0,13.38,2.55,18.98,15.32l89.98,241.16,79.7-220.72c6.68-16.86,10.28-22.49,17.98-22.49,6.68,0,10.8,4.61,17.48,22.49l78.67,219.19,89.98-239.63c5.65-12.27,8.74-15.32,18.98-15.32h27.76c8.23,0,11.32,2,11.32,7.66-.11,2.62-.64,5.2-1.55,7.66l-125.82,321.88c-8.22,21.98-12.34,27.08-18.98,27.08s-11.31-5.62-18.98-25.55l-79.83-217.14-79.7,217.14c-6.68,19.93-10.79,25.55-18.5,25.55s-11.32-5.11-19.54-27.08Z"/>
        <path class="cls-8" d="M886.89,1055.26c1.54,103.71-81.76,187-187.16,184.95-102.84,2-185.61-80.21-184.07-182.9-1.54-103.73,82.27-188.03,186.13-185.98,103.85-1.53,186.64,80.71,185.1,183.93Zm-53.48,.51c0-79.19-58.62-135.86-132.15-135.86s-132.14,57.73-132.14,136.92c-1.55,76.64,58.61,136.42,131.11,134.86,72.5,1.52,134.71-59.79,133.18-135.92Z"/>
        <path class="cls-8" d="M1305.41,1055.26c1.55,103.71-81.75,187-187.15,184.95-102.84,2-185.61-80.21-184.07-182.9-1.54-103.73,82.27-188.03,186.13-185.98,103.85-1.53,186.64,80.71,185.09,183.93Zm-53.47,.51c0-79.19-58.62-135.86-132.15-135.86s-132.14,57.73-132.14,136.92c-1.55,76.64,58.61,136.42,131.11,134.86,72.5,1.52,134.71-59.79,133.18-135.92Z"/>
        <path class="cls-8" d="M1492.56,876.95c120.32,0,194.36,69.48,194.36,174.73,0,110.89-77.64,182.91-201.56,182.91h-99.77c-8.23,0-11.31-2.56-11.31-11.25v-335.16c0-8.69,3.08-11.24,11.31-11.24h106.96Zm-66.83,303.48c0,4.09,1.54,5.62,6.16,5.62h54.5c93.07,0,147.05-50.58,147.05-132.33,0-77.15-53.95-128.25-144.99-128.25h-56.56c-4.63,0-6.16,1.54-6.16,5.62v249.33Z"/>
        <path class="cls-7" d="M2114.69,1223.35c0,8.69-3.08,11.25-11.31,11.25h-194.87c-8.22,0-11.31-2.56-11.31-11.25v-335.16c0-8.69,3.09-11.24,11.31-11.24h194.36c8.22,0,11.31,2.55,11.31,11.24v26.05c0,8.69-3.09,11.24-11.31,11.24h-148.08c-4.64,0-6.17,1.54-6.17,5.62v93.5c0,4.61,1.54,6.13,6.17,6.13h130.6c8.22,0,11.31,2.56,11.31,11.24v25.54c0,8.18-3.09,11.25-11.31,11.25h-130.6c-4.64,0-6.17,1.53-6.17,5.61v96.05c0,4.09,1.54,5.62,6.17,5.62h148.59c8.23,0,11.31,2.56,11.31,11.24v26.05Z"/>
        <path class="cls-7" d="M2199,1234.6c-8.22,0-11.31-2.56-11.31-11.25v-335.16c0-8.69,3.09-11.24,11.31-11.24h28.8c8.22,0,11.31,2.55,11.31,11.24v335.16c0,8.69-3.09,11.25-11.31,11.25h-28.8Zm245.26-357.64c6.68,0,9.77,2,9.77,5.61,0,2-1,4.6-3.6,7.15l-139.34,163.49,142.94,168.1c2.57,3.58,4.12,6.13,4.12,7.66,0,3.58-3.61,5.62-10.29,5.62h-35.47c-11.83,0-14.91-2-23.14-11.76l-132.15-158.38c-3.09-3.58-4.63-7.15-4.63-9.71,0-3.07,1.54-6.64,5.14-10.22l130.6-155.32c8.22-10.22,11.83-12.26,22.62-12.26h33.43Z"/>
        <path class="cls-7" d="M2846.34,1055.26c1.55,103.71-81.75,187-187.15,184.95-102.84,2-185.62-80.21-184.07-182.9-1.55-103.73,82.27-188.03,186.12-185.98,103.86-1.53,186.65,80.71,185.1,183.93Zm-53.48,.51c0-79.19-58.61-135.86-132.14-135.86s-132.15,57.73-132.15,136.92c-1.54,76.64,58.62,136.42,131.12,134.86,72.54,1.52,134.71-59.79,133.17-135.92Z"/>
        <line class="cls-4" x1="3046.42" y1="1.78" x2="3046.42" y2="1241.23"/>
        <text class="cls-2" transform="translate(1291.07 1308.37) rotate(-89.23) scale(1.39 1)"><tspan x="0" y="0">(</tspan></text>
        <path class="cls-3" d="M20.58,1483.81H8.89c-2.93,0-4.5-.89-4.5-2.89,.2-1.31,.58-2.58,1.12-3.79l67.65-141.1c4.5-9.12,5.84-11.13,8.77-11.13,2.7,0,3.82,2,8.31,11.13l68.32,141.1c.54,1.21,.92,2.48,1.13,3.79,0,2-1.58,2.89-4.73,2.89h-12.58c-4.73,0-6.29-1.33-8.99-6.67l-51.95-110.83-51.95,110.83c-2.42,5.36-4.22,6.67-8.93,6.67Z"/>
        <path class="cls-3" d="M230.95,1328.03c52.59,0,84.91,30.27,84.91,76.11,0,48.29-33.97,79.67-88.1,79.67h-43.57c-3.6,0-4.94-1.11-4.94-4.9v-145.99c0-3.79,1.35-4.9,4.94-4.9h46.75Zm-29.22,132.2c0,1.78,.67,2.45,2.7,2.45h23.83c40.68,0,64.27-22.03,64.27-57.64,0-33.61-23.6-55.86-63.38-55.86h-24.72c-2,0-2.7,.67-2.7,2.45v108.61Z"/>
        <path class="cls-3" d="M345.11,1418.15v-85.23c0-3.79,1.35-4.9,4.99-4.9h12.37c3.82,0,5.16,1.11,5.16,4.9v83.92c0,30.49,14.83,48.29,41.81,48.29s42.7-18.25,42.7-48.07v-84.12c0-3.79,1.35-4.9,4.73-4.9h12.59c3.82,0,5.16,1.11,5.16,4.9v84.57c0,45.39-27.42,68.76-66.07,68.76-37.36,0-63.44-22.04-63.44-68.11Z"/>
        <path class="cls-3" d="M633.47,1447.1c1.13,0,2.47,1.11,3.37,2.22l6.52,8.91c.69,.89,1.09,1.98,1.12,3.11,0,1.12-.9,2.45-2.7,4-16.34,13.6-36.94,21.01-58.2,20.92-43.61,.9-80.92-34.5-80.02-79.67-.67-45.62,35.96-81.68,81.37-81.01,20.85,.07,41.03,7.39,57.08,20.7,1.57,1.11,2.25,2.22,2.25,3.34-.08,1.29-.55,2.53-1.35,3.56l-6.51,8.68c-1.13,1.56-2.48,2.45-3.6,2.45-1.41-.24-2.73-.86-3.83-1.78-12.81-9.79-28.09-15.8-44.49-15.8-32.15,0-57.54,24.97-57.54,59.42-.45,32.97,25.39,59.65,57.54,58.94,16.47,.14,32.46-5.51,45.17-15.98,1.57-1.33,2.92-1.99,3.82-1.99Z"/>
        <path class="cls-3" d="M765.63,1478.91c0,3.79-1.35,4.9-4.95,4.9h-85.18c-3.6,0-4.95-1.11-4.95-4.9v-145.99c0-3.79,1.35-4.9,4.95-4.9h84.91c3.6,0,4.95,1.11,4.95,4.9v11.35c0,3.79-1.35,4.9-4.95,4.9h-64.68c-2,0-2.7,.67-2.7,2.45v40.73c0,2,.67,2.68,2.7,2.68h57.08c3.6,0,4.95,1.11,4.95,4.9v11.13c0,3.56-1.35,4.9-4.95,4.9h-57.08c-2,0-2.7,.66-2.7,2.45v41.84c0,1.78,.67,2.45,2.7,2.45h64.93c3.6,0,4.95,1.11,4.95,4.9l.02,11.35Z"/>
        <path class="cls-3" d="M815.07,1483.81h-12.59c-3.6,0-4.95-1.11-4.95-4.9v-145.77c0-5.11,1.13-7.34,4.5-7.34,2.48,0,4.28,1.78,8.54,6.45l62.71,74.55,61.78-74.55c4.72-5.11,6.06-6.45,8.54-6.45,3.37,0,4.5,2.23,4.5,7.34v145.77c0,3.79-1.35,4.9-4.99,4.9h-12.59c-3.6,0-4.95-1.11-4.95-4.9v-103.71l-44.95,54.74c-3.82,5.12-5.39,6.23-7.86,6.23s-4.05-1.11-7.87-6.23l-44.95-54.74v103.7c.09,3.79-1.26,4.9-4.86,4.9Z"/>
        <path class="cls-3" d="M1169.95,1447.1c1.12,0,2.47,1.11,3.37,2.22l6.52,8.91c.69,.89,1.09,1.98,1.12,3.11,0,1.12-.9,2.45-2.7,4-16.34,13.6-36.95,21.01-58.21,20.92-43.6,.9-80.92-34.5-80.01-79.67-.67-45.62,35.96-81.68,81.36-81.01,20.85,.07,41.04,7.39,57.09,20.7,1.57,1.11,2.25,2.22,2.25,3.34-.08,1.29-.55,2.53-1.35,3.56l-6.52,8.68c-1.12,1.56-2.47,2.45-3.6,2.45-1.41-.24-2.73-.86-3.82-1.78-12.82-9.79-28.09-15.8-44.51-15.8-32.14,0-57.53,24.97-57.53,59.42-.45,32.97,25.39,59.65,57.53,58.94,16.47,.15,32.46-5.51,45.17-15.98,1.58-1.33,2.93-1.99,3.83-1.99Z"/>
        <path class="cls-3" d="M1207.7,1483.81h-11.69c-2.92,0-4.5-.89-4.5-2.89,.2-1.31,.58-2.58,1.13-3.79l67.65-141.1c4.5-9.12,5.84-11.13,8.76-11.13,2.7,0,3.82,2,8.31,11.13l68.33,141.1c.54,1.21,.91,2.48,1.12,3.79,0,2-1.57,2.89-4.72,2.89h-12.59c-4.73,0-6.29-1.33-8.99-6.67l-51.95-110.83-51.95,110.83c-2.41,5.36-4.21,6.67-8.93,6.67Z"/>
        <path class="cls-3" d="M1457.84,1462.67c3.6,0,4.99,1.11,4.99,4.9v11.35c0,3.79-1.35,4.9-4.99,4.9h-86.52c-3.6,0-4.99-1.11-4.99-4.9v-145.99c0-3.79,1.35-4.9,4.99-4.9h12.58c3.6,0,4.99,1.11,4.99,4.9v127.3c0,1.78,.68,2.45,2.7,2.45h66.25Z"/>
        <path class="cls-3" d="M1542.13,1328.03c52.59,0,84.91,30.27,84.91,76.11,0,48.29-33.97,79.67-88.1,79.67h-43.61c-3.6,0-4.99-1.11-4.99-4.9v-145.99c0-3.79,1.35-4.9,4.99-4.9h46.79Zm-29.22,132.2c0,1.78,.67,2.45,2.7,2.45h23.84c40.68,0,64.27-22.03,64.27-57.64,0-33.61-23.6-55.86-63.38-55.86h-24.72c-2,0-2.7,.67-2.7,2.45v108.61Z"/>
        <path class="cls-3" d="M1656.32,1418.15v-85.23c0-3.79,1.35-4.9,4.99-4.9h12.37c3.82,0,5.16,1.11,5.16,4.9v83.92c0,30.49,14.83,48.29,41.81,48.29s42.7-18.25,42.7-48.07v-84.12c0-3.79,1.35-4.9,4.73-4.9h12.59c3.82,0,5.16,1.11,5.16,4.9v84.57c0,45.39-27.42,68.76-66.07,68.76-37.39,0-63.44-22.04-63.44-68.11Z"/>
        <path class="cls-3" d="M1829.15,1483.81c-3.6,0-4.99-1.11-4.99-4.9v-145.99c0-3.79,1.35-4.9,4.99-4.9h42.96c42.71,0,64.06,15.98,64.06,48.29,0,21.37-11.46,35.16-30.57,41.62l38.66,59.2c.99,1.21,1.61,2.68,1.8,4.23,0,1.79-1.58,2.45-4.99,2.45h-13.26c-5.17,0-6.52-.89-9.89-5.99l-41.36-64.93c-.78-.86-1.25-1.96-1.35-3.12,0-1.11,1.13-1.78,3.38-2,22.7-2.45,33.97-12.46,33.97-30.04,0-20.25-14.62-29.16-41.58-29.16h-21.58c-2,0-2.7,.67-2.7,2.68v127.74c0,3.79-1.35,4.9-4.99,4.9l-12.55-.07Z"/>
        <path class="cls-3" d="M1963.08,1483.81h-11.69c-2.92,0-4.5-.89-4.5-2.89,.2-1.31,.58-2.58,1.13-3.79l67.64-141.1c4.5-9.12,5.84-11.13,8.77-11.13,2.7,0,3.82,2,8.31,11.13l68.32,141.1c.54,1.21,.92,2.48,1.13,3.79,0,2-1.58,2.89-4.73,2.89h-12.59c-4.73,0-6.29-1.33-8.99-6.67l-51.95-110.83-51.95,110.83c-2.41,5.36-4.21,6.67-8.92,6.67Z"/>
        <path class="cls-3" d="M2188.51,1483.81c-3.6,0-4.94-1.11-4.94-4.9v-145.99c0-3.79,1.35-4.9,4.94-4.9h12.59c3.6,0,4.94,1.11,4.94,4.9v145.99c0,3.79-1.35,4.9-4.94,4.9h-12.59Z"/>
        <path class="cls-3" d="M2368.3,1328.03c3.6,0,4.99,1.11,4.99,4.9v145.99c0,4.9-1.58,7.34-4.5,7.34-2.48,0-4.73-1.55-9.44-6.89l-91.25-106.6v106.15c0,3.79-1.35,4.9-4.99,4.9h-12.59c-3.6,0-4.94-1.11-4.94-4.9v-145.99c0-5.11,1.35-7.34,4.73-7.34,2.47,0,4.72,1.56,9.21,6.89l91.25,106.61v-106.16c0-3.79,1.35-4.9,4.94-4.9h12.59Z"/>
        <path class="cls-3" d="M2595.07,1447.1c1.12,0,2.47,1.11,3.37,2.22l6.52,8.91c.69,.89,1.09,1.98,1.12,3.11,0,1.12-.9,2.45-2.7,4-16.34,13.6-36.95,21.01-58.21,20.92-43.6,.9-80.92-34.5-80.01-79.67-.67-45.62,35.96-81.68,81.36-81.01,20.85,.07,41.04,7.39,57.09,20.7,1.57,1.11,2.25,2.22,2.25,3.34-.08,1.29-.55,2.53-1.35,3.56l-6.52,8.68c-1.12,1.56-2.47,2.45-3.6,2.45-1.41-.24-2.73-.86-3.82-1.78-12.81-9.79-28.09-15.8-44.51-15.8-32.14,0-57.53,24.97-57.53,59.42-.45,32.97,25.39,59.65,57.53,58.94,16.47,.15,32.46-5.51,45.17-15.98,1.58-1.33,2.93-1.99,3.83-1.99Z"/>
        <path class="cls-3" d="M2632.83,1483.81h-11.69c-2.92,0-4.5-.89-4.5-2.89,.2-1.31,.58-2.58,1.13-3.79l67.65-141.1c4.5-9.12,5.84-11.13,8.76-11.13,2.7,0,3.83,2,8.32,11.13l68.32,141.1c.54,1.21,.91,2.48,1.12,3.79,0,2-1.57,2.89-4.72,2.89h-12.59c-4.72,0-6.29-1.33-8.99-6.67l-51.95-110.83-51.95,110.83c-2.43,5.36-4.21,6.67-8.93,6.67Z"/>
        <path class="cls-3" d="M2802.28,1449.53c13.72,10.46,27.42,15.79,41.13,15.79,20.68,0,33.97-9.34,33.97-23.81s-8.54-18.92-35.51-25.82c-31.47-7.78-48.55-18.69-48.55-44.72,0-28.27,22.98-45.4,53.05-45.4,18.58-.14,36.66,6.06,51.24,17.58,1.58,1.11,2.25,2.23,2.25,3.34,0,.89-.67,2-1.57,3.56l-6.52,9.57c-1.12,1.79-2.25,2.45-3.37,2.45-1.41-.1-2.75-.64-3.83-1.55-11.91-8.68-24.27-13.99-38.43-13.99-17.07,0-29.21,8.9-29.21,23.15s10.11,19.81,34.6,25.81c34.17,8.68,49.22,19.81,49.22,44.52,0,28.04-24.05,46.28-57.76,46.28-20.45,0-38.2-7.34-53.27-19.13-1.57-1.56-2.47-2.68-2.47-3.79,.1-1.4,.65-2.73,1.57-3.79l6.74-9.35c1.13-1.56,2.25-2.45,3.38-2.45,.65-.03,1.78,.64,3.35,1.75Z"/>
        <path class="cls-3" d="M3025.69,1478.91c0,3.79-1.35,4.9-4.94,4.9h-85.18c-3.6,0-4.99-1.11-4.99-4.9v-145.99c0-3.79,1.35-4.9,4.99-4.9h84.91c3.6,0,4.94,1.11,4.94,4.9v11.35c0,3.79-1.35,4.9-4.94,4.9h-64.72c-2,0-2.7,.67-2.7,2.45v40.73c0,2,.68,2.68,2.7,2.68h57.08c3.6,0,4.94,1.11,4.94,4.9v11.13c0,3.56-1.35,4.9-4.94,4.9h-57.08c-2,0-2.7,.66-2.7,2.45v41.84c0,1.78,.68,2.45,2.7,2.45h64.93c3.6,0,4.94,1.11,4.94,4.9l.06,11.35Z"/>
        <path class="cls-3" d="M3149.07,1462.67c3.6,0,4.94,1.11,4.94,4.9v11.35c0,3.79-1.35,4.9-4.94,4.9h-86.53c-3.6,0-4.94-1.11-4.94-4.9v-145.99c0-3.79,1.35-4.9,4.94-4.9h12.59c3.6,0,4.99,1.11,4.99,4.9v127.3c0,1.78,.68,2.45,2.7,2.45h66.25Z"/>
        <path class="cls-3" d="M3276.68,1478.91c0,3.79-1.35,4.9-4.94,4.9h-85.17c-3.6,0-4.94-1.11-4.94-4.9v-145.99c0-3.79,1.35-4.9,4.94-4.9h84.91c3.6,0,4.99,1.11,4.99,4.9v11.35c0,3.79-1.35,4.9-4.99,4.9h-64.72c-2,0-2.7,.67-2.7,2.45v40.73c0,2,.67,2.68,2.7,2.68h57.08c3.6,0,4.99,1.11,4.99,4.9v11.13c0,3.56-1.35,4.9-4.99,4.9h-57.08c-2,0-2.7,.66-2.7,2.45v41.84c0,1.78,.67,2.45,2.7,2.45h64.93c3.6,0,4.94,1.11,4.94,4.9l.05,11.35Z"/>
        <path class="cls-3" d="M3489.56,1328.03h11.47c3.15,0,4.72,.89,4.72,2.9-.21,1.3-.58,2.57-1.12,3.78l-67.87,141.1c-3.83,8.68-5.84,11.13-8.54,11.13s-4.28-2.22-8.54-11.13l-68.06-141.1c-.54-1.2-.92-2.47-1.13-3.78,0-2,1.58-2.9,4.73-2.9h12.36c4.73,0,6.52,1.34,8.99,6.67l52.15,110.89,51.69-110.89c2.66-5.33,4.46-6.67,9.17-6.67Z"/>
        <path class="cls-3" d="M3674.76,1405.7c.67,45.17-35.73,81.46-81.82,80.56-43.24,1.2-79.28-32.88-80.48-76.12-.03-1.19-.04-2.37-.02-3.56-.75-43.99,34.29-80.26,78.28-81.01,1.03-.02,2.05-.02,3.08,0,45.44-.66,81.63,35.17,80.96,80.13Zm-23.38,.22c0-34.5-25.62-59.2-57.76-59.2s-57.76,25.15-57.76,59.65c-.67,33.38,25.62,59.42,57.31,58.75,31.69,.67,58.88-26.03,58.21-59.2Z"/>
        <path class="cls-3" d="M3697.69,1483.81h-11.69c-2.93,0-4.5-.89-4.5-2.89,.2-1.31,.58-2.58,1.12-3.79l67.65-141.1c4.5-9.12,5.84-11.13,8.76-11.13,2.7,0,3.83,2,8.32,11.13l68.32,141.1c.54,1.21,.92,2.48,1.13,3.79,0,2-1.58,2.89-4.73,2.89h-12.59c-4.72,0-6.29-1.33-8.99-6.67l-51.95-110.83-51.95,110.83c-2.36,5.36-4.21,6.67-8.92,6.67Z"/>
        <path class="cls-3" d="M3867.15,1449.53c13.71,10.46,27.41,15.79,41.13,15.79,20.67,0,33.97-9.34,33.97-23.81s-8.54-18.92-35.51-25.82c-31.46-7.78-48.54-18.69-48.54-44.72,0-28.27,22.92-45.4,53.04-45.4,18.59-.14,36.66,6.06,51.25,17.58,1.57,1.11,2.25,2.23,2.25,3.34,0,.89-.68,2-1.58,3.56l-6.51,9.57c-1.13,1.79-2.25,2.45-3.38,2.45-1.4-.1-2.74-.64-3.82-1.55-11.92-8.68-24.28-13.99-38.43-13.99-17.08,0-29.22,8.9-29.22,23.15s10.11,19.81,34.61,25.81c34.16,8.68,49.22,19.81,49.22,44.52,0,28.04-24.06,46.28-57.76,46.28-20.46,0-38.21-7.34-53.27-19.13-1.58-1.56-2.48-2.68-2.48-3.79,.1-1.4,.65-2.73,1.58-3.79l6.74-9.35c1.12-1.56,2.25-2.45,3.37-2.45,.65-.03,1.77,.64,3.35,1.75Z"/>
        <path class="cls-3" d="M4057.5,1349.16c-2,0-2.7,.67-2.7,2.45v127.3c0,3.79-1.35,4.9-4.94,4.9h-12.59c-3.6,0-4.99-1.11-4.99-4.9v-127.28c0-1.78-.67-2.45-2.7-2.45h-42.25c-3.6,0-4.99-1.11-4.99-4.9v-11.35c0-3.79,1.35-4.9,4.99-4.9h112.42c3.6,0,4.99,1.11,4.99,4.9v11.35c0,3.79-1.35,4.9-4.99,4.9l-42.25-.02Z"/>
        <path class="cls-3" d="M4132.82,1483.81c-3.6,0-4.95-1.11-4.95-4.9v-145.99c0-3.79,1.35-4.9,4.95-4.9h42.96c42.7,0,64.05,15.98,64.05,48.29,0,21.37-11.46,35.16-30.56,41.62l38.65,59.2c.99,1.21,1.62,2.67,1.8,4.23,0,1.79-1.57,2.45-4.95,2.45h-13.26c-5.16,0-6.51-.89-9.89-5.99l-41.35-64.93c-.78-.86-1.25-1.96-1.35-3.12,0-1.11,1.12-1.78,3.37-2,22.7-2.45,33.97-12.46,33.97-30.04,0-20.25-14.61-29.16-41.58-29.16h-21.58c-2,0-2.7,.67-2.7,2.68v127.74c0,3.79-1.35,4.9-4.99,4.9l-12.59-.07Z"/>
        <path class="cls-3" d="M4365.63,1478.91c0,3.79-1.35,4.9-4.95,4.9h-85.17c-3.6,0-4.95-1.11-4.95-4.9v-145.99c0-3.79,1.35-4.9,4.95-4.9h84.91c3.6,0,4.95,1.11,4.95,4.9v11.35c0,3.79-1.35,4.9-4.95,4.9h-64.73c-2,0-2.7,.67-2.7,2.45v40.73c0,2,.68,2.68,2.7,2.68h57.09c3.6,0,4.99,1.11,4.99,4.9v11.13c0,3.56-1.35,4.9-4.99,4.9h-57.09c-2,0-2.7,.66-2.7,2.45v41.84c0,1.78,.68,2.45,2.7,2.45h64.93c3.6,0,4.95,1.11,4.95,4.9l.06,11.35Z"/>
        <path class="cls-3" d="M4421.82,1472.69c0,7.78-6.06,13.13-14.16,13.13s-13.94-5.34-13.94-13.13,6.06-13.36,13.94-13.36,14.16,5.56,14.16,13.36Z"/>
        <path class="cls-6" d="M3834.74,1079.69c46.79-121.3,170-180.98,270.32-196.68-146.95,74.92-220.3,154.52-272.23,316.58l29.97,7.31c7.93-29.96,19.33-58.9,33.97-86.22,102.5,33.61,195.93,23.42,272.02-56.68,94.54-115.78,63.12-241.45,23.41-367.76-37.8,121.62-248.52,103.25-327.57,245.69-16.69,30.07-30.69,59.66-41.9,89.71"/>
        <path class="cls-9" d="M3871.84,945.79c101.56-126.33,291.85-121.28,320.36-249.55-43.96,94.2-189.92,58.59-289.92,139.13-57.94,48.95-93.52,109.58-79.56,196.28,11.21-30.06,28.15-58.52,49.12-85.86Z"/>
        <path class="cls-6" d="M3766.19,1079.69c-46.8-121.3-170.01-180.98-270.33-196.68,146.96,74.92,220.31,154.52,272.24,316.58l-29.97,7.31c-7.93-29.96-19.33-58.9-33.97-86.22-102.5,33.61-195.94,23.42-272.03-56.68-94.53-115.78-63.11-241.45-23.41-367.76,37.78,121.62,248.57,103.25,327.59,245.69,16.68,30.07,30.68,59.66,41.89,89.71"/>
        <path class="cls-9" d="M3729.1,945.79c-101.55-126.34-291.85-121.28-320.37-249.56,43.96,94.2,189.92,58.59,289.92,139.13,57.94,48.95,93.52,109.58,79.56,196.28-11.21-30.05-28.15-58.51-49.11-85.85Z"/>
        <path class="cls-5" d="M3805.03,601.67c-117.22,0-212.57-95.35-212.57-212.57s95.35-212.58,212.57-212.58,212.58,95.36,212.58,212.58-95.36,212.57-212.58,212.57Z"/>
        <path class="cls-5" d="M3805.03,136.86c-9.55,0-17.29-7.74-17.29-17.29V17.29c0-9.55,7.74-17.29,17.29-17.29s17.29,7.74,17.29,17.29V119.59c-.01,9.54-7.75,17.27-17.29,17.27Z"/>
        <path class="cls-5" d="M3805.03,778.21c-9.55,0-17.29-7.74-17.29-17.29v-102.32c0-9.55,7.74-17.29,17.29-17.29s17.29,7.74,17.29,17.29v102.29c.02,9.55-7.71,17.31-17.26,17.32h-.03Z"/>
        <path class="cls-5" d="M3535.53,406.39h-102.3c-9.55,0-17.3-7.73-17.3-17.28,0-9.55,7.73-17.3,17.28-17.3h102.31c9.55,0,17.29,7.75,17.28,17.3,0,9.54-7.74,17.28-17.28,17.28Z"/>
        <path class="cls-5" d="M4176.83,406.39h-102.29c-9.55,0-17.3-7.73-17.3-17.28,0-9.55,7.73-17.3,17.28-17.3h102.3c9.55,0,17.29,7.75,17.28,17.3,0,9.54-7.74,17.28-17.28,17.28Z"/>
        <path class="cls-5" d="M3995.61,215.78c-9.56-.01-17.29-7.77-17.28-17.33,0-4.57,1.82-8.96,5.05-12.19l72.33-72.34c6.61-6.89,17.56-7.11,24.45-.5,6.89,6.61,7.11,17.56,.5,24.45-.16,.17-.33,.33-.5,.5l-72.34,72.42c-3.25,3.23-7.64,5.02-12.22,4.99Z"/>
        <path class="cls-5" d="M3542.13,669.32c-9.55,0-17.29-7.74-17.29-17.29,0-4.59,1.82-8.98,5.06-12.23l72.34-72.33c6.77-6.74,17.72-6.72,24.46,.05,6.72,6.75,6.72,17.66,0,24.4l-72.29,72.29c-3.24,3.28-7.67,5.12-12.28,5.1Z"/>
        <path class="cls-5" d="M3614.46,215.78c-4.59,0-8.99-1.82-12.23-5.07l-72.34-72.34c-6.72-6.79-6.67-17.73,.12-24.46,6.76-6.69,17.66-6.67,24.39,.05l72.34,72.34c6.73,6.79,6.67,17.74-.11,24.47-3.24,3.21-7.61,5.01-12.16,5.01Z"/>
        <path class="cls-5" d="M4067.93,669.32c-4.59,0-8.99-1.82-12.23-5.06l-72.33-72.33c-6.77-6.75-6.78-17.71-.03-24.48,6.75-6.77,17.71-6.78,24.47-.03h0l72.34,72.33c6.78,6.73,6.83,17.67,.1,24.46-3.26,3.29-7.7,5.13-12.33,5.11Z"/>
        <path class="cls-5" d="M3701.9,157.4c-7,0-13.31-4.21-15.98-10.68l-19.74-47.67c-3.65-8.83,.54-18.94,9.37-22.6,8.83-3.65,18.94,.54,22.6,9.37h0l19.74,47.67c3.65,8.82-.54,18.94-9.36,22.59-2.1,.87-4.35,1.32-6.62,1.31Z"/>
        <path class="cls-5" d="M3927.92,703.06c-7,0-13.3-4.22-15.98-10.68l-19.75-47.67c-3.66-8.83,.54-18.95,9.37-22.6s18.95,.54,22.6,9.37h0l19.75,47.67c3.64,8.85-.58,18.97-9.43,22.61-2.08,.86-4.31,1.3-6.56,1.3h0Z"/>
        <path class="cls-5" d="M3908.17,157.4c-9.55,0-17.3-7.73-17.3-17.28,0-2.28,.45-4.53,1.32-6.63l19.76-47.67c3.66-8.83,13.77-13.02,22.6-9.37,8.83,3.66,13.02,13.77,9.37,22.6l-19.75,47.67c-2.68,6.47-8.99,10.69-15.99,10.68Z"/>
        <path class="cls-5" d="M3682.15,703.06c-9.57-.02-17.31-7.79-17.29-17.36,0-2.25,.45-4.48,1.3-6.56l19.74-47.67c3.66-8.83,13.77-13.02,22.6-9.37s13.02,13.77,9.37,22.6h0l-19.74,47.67c-2.69,6.46-8.99,10.67-15.98,10.68Z"/>
        <path class="cls-5" d="M3508.38,529.27c-9.55,0-17.3-7.73-17.3-17.28,0-7,4.21-13.3,10.67-15.98l47.66-19.75c8.83-3.66,18.95,.54,22.6,9.37s-.54,18.95-9.37,22.6h0l-47.67,19.75c-2.09,.86-4.33,1.3-6.59,1.3Z"/>
        <path class="cls-5" d="M4054.04,303.25c-9.55,.02-17.31-7.71-17.33-17.26-.01-7.01,4.21-13.34,10.69-16.02l47.67-19.74c8.83-3.66,18.95,.54,22.6,9.37s-.54,18.95-9.37,22.6h0l-47.67,19.74c-2.09,.86-4.34,1.31-6.6,1.31Z"/>
        <path class="cls-5" d="M3556.03,303.25c-2.27,0-4.51-.45-6.6-1.33l-47.67-19.74c-8.83-3.65-13.02-13.77-9.37-22.6,3.65-8.83,13.77-13.02,22.6-9.37l47.67,19.74c8.83,3.66,13.02,13.78,9.36,22.61-2.68,6.46-8.99,10.68-15.98,10.68h0Z"/>
        <path class="cls-5" d="M4101.69,529.27c-2.27,0-4.52-.45-6.61-1.32l-47.67-19.75c-8.83-3.66-13.02-13.77-9.37-22.6s13.77-13.02,22.6-9.37l47.67,19.75c8.82,3.66,13.01,13.77,9.35,22.6-2.68,6.46-8.98,10.67-15.97,10.67v.02Z"/>
        <path class="cls-1" d="M3914.88,406.39c-9.55,0-17.29-7.74-17.29-17.29-.06-51.1-41.46-92.51-92.56-92.57-9.55,0-17.3-7.73-17.3-17.28,0-9.55,7.73-17.3,17.28-17.3h.02c70.1,0,127.14,57.04,127.14,127.15,0,9.55-7.74,17.29-17.29,17.29Z"/>
      </g>
    </g>
  </g>
</svg>